<svg width="40" height="40" viewBox="0 0 40 40" fill="none" xmlns="http://www.w3.org/2000/svg">
<path fill-rule="evenodd" clip-rule="evenodd" d="M8.8886 3.37061C12.1776 1.17298 16.0443 7.56545e-07 20 7.56545e-07C22.6267 -0.00072178 25.2277 0.516105 27.6546 1.52094C30.0814 2.52578 32.2864 3.99893 34.1437 5.85625C36.001 7.71355 37.4742 9.91865 38.4791 12.3455C39.4839 14.7723 40.0007 17.3733 40 20C40 23.9557 38.827 27.8225 36.6294 31.1114C34.4317 34.4004 31.3082 36.9639 27.6537 38.4776C23.9992 39.9914 19.9778 40.3874 16.0982 39.6157C12.2185 38.844 8.65495 36.9392 5.8579 34.1422C3.06083 31.3451 1.15601 27.7815 0.384304 23.9018C-0.387401 20.0222 0.00866449 16.0008 1.52242 12.3463C3.03617 8.6918 5.5996 5.56825 8.8886 3.37061ZM5.6207 17.286L11.6213 23.292C11.6808 23.3538 11.7522 23.403 11.8312 23.4365C11.9101 23.4701 11.9951 23.4874 12.0809 23.4874C12.1667 23.4874 12.2517 23.4701 12.3307 23.4365C12.4097 23.403 12.481 23.3538 12.5406 23.292L18.5301 17.286C18.6498 17.1662 18.7171 17.0039 18.7171 16.8346C18.7171 16.6653 18.6498 16.5029 18.5301 16.3832L12.524 10.3826C12.4043 10.2629 12.242 10.1957 12.0727 10.1957C11.9034 10.1957 11.741 10.2629 11.6213 10.3826L5.6207 16.3832C5.501 16.5029 5.4338 16.6653 5.4338 16.8346C5.4338 17.0039 5.501 17.1662 5.6207 17.286ZM20.4514 31.2139L26.452 25.2134C26.5716 25.0936 26.6388 24.9312 26.6388 24.7619C26.6388 24.5926 26.5716 24.4302 26.452 24.3105L20.4514 18.3044C20.3317 18.1847 20.1693 18.1175 20 18.1175C19.8307 18.1175 19.6683 18.1847 19.5485 18.3044L13.5426 24.3105C13.4229 24.4302 13.3556 24.5926 13.3556 24.7619C13.3556 24.9312 13.4229 25.0936 13.5426 25.2134L19.5485 31.2139C19.6683 31.3336 19.8307 31.4008 20 31.4008C20.1693 31.4008 20.3317 31.3336 20.4514 31.2139ZM34.3738 17.286L28.3732 23.292C28.2535 23.4117 28.0912 23.479 27.9219 23.479C27.7526 23.479 27.5901 23.4117 27.4704 23.292L21.4643 17.286C21.3447 17.1662 21.2775 17.0039 21.2775 16.8346C21.2775 16.6653 21.3447 16.5029 21.4643 16.3832L27.4704 10.3826C27.5901 10.2629 27.7526 10.1957 27.9219 10.1957C28.0912 10.1957 28.2535 10.2629 28.3732 10.3826L34.3738 16.3832C34.4337 16.4421 34.4813 16.5123 34.5138 16.5898C34.5463 16.6673 34.563 16.7506 34.563 16.8346C34.563 16.9186 34.5463 17.0018 34.5138 17.0793C34.4813 17.1568 34.4337 17.227 34.3738 17.286Z" fill="#6742D6"/>
</svg>
