<svg width="40" height="40" viewBox="0 0 40 40" fill="none" xmlns="http://www.w3.org/2000/svg">
<path fill-rule="evenodd" clip-rule="evenodd" d="M20 7.58133e-07C16.0444 7.58133e-07 12.1776 1.17298 8.8886 3.37061C5.59962 5.56824 3.03617 8.69181 1.52242 12.3463C0.00866445 16.0009 -0.387401 20.0222 0.384304 23.9018C1.15601 27.7814 3.06083 31.3451 5.85788 34.1421C8.65493 36.9392 12.2186 38.844 16.0982 39.6157C19.9778 40.3874 23.9991 39.9913 27.6537 38.4776C31.3082 36.9638 34.4317 34.4004 36.6294 31.1114C38.827 27.8224 40 23.9556 40 20C40.0007 17.3734 39.4839 14.7723 38.4791 12.3455C37.4742 9.91864 36.0011 7.71356 34.1437 5.85625C32.2864 3.99893 30.0814 2.52578 27.6545 1.52094C25.2277 0.516102 22.6266 -0.000722535 20 7.58133e-07Z" fill="#7221C2"/>
<path d="M5.62072 17.2861L11.6213 23.2921C11.6809 23.3539 11.7522 23.403 11.8312 23.4366C11.9102 23.4702 11.9951 23.4874 12.0809 23.4874C12.1668 23.4874 12.2517 23.4702 12.3307 23.4366C12.4097 23.403 12.4811 23.3539 12.5406 23.2921L18.5302 17.2861C18.6498 17.1663 18.7171 17.004 18.7171 16.8347C18.7171 16.6654 18.6498 16.503 18.5302 16.3832L12.5241 10.3827C12.4043 10.263 12.242 10.1958 12.0727 10.1958C11.9034 10.1958 11.741 10.263 11.6213 10.3827L5.62072 16.3832C5.50105 16.503 5.43384 16.6654 5.43384 16.8347C5.43384 17.004 5.50105 17.1663 5.62072 17.2861Z" fill="white"/>
<path d="M20.4514 31.2139L26.452 25.2134C26.5717 25.0937 26.6389 24.9313 26.6389 24.762C26.6389 24.5927 26.5717 24.4303 26.452 24.3106L20.4514 18.3045C20.3317 18.1848 20.1693 18.1176 20 18.1176C19.8307 18.1176 19.6683 18.1848 19.5486 18.3045L13.5426 24.3106C13.4229 24.4303 13.3556 24.5927 13.3556 24.762C13.3556 24.9313 13.4229 25.0937 13.5426 25.2134L19.5486 31.2139C19.6683 31.3336 19.8307 31.4009 20 31.4009C20.1693 31.4009 20.3317 31.3336 20.4514 31.2139Z" fill="white"/>
<path d="M28.3733 23.2921L34.3738 17.2861C34.4337 17.2272 34.4813 17.1569 34.5138 17.0794C34.5463 17.0019 34.563 16.9187 34.563 16.8347C34.563 16.7506 34.5463 16.6674 34.5138 16.5899C34.4813 16.5124 34.4337 16.4422 34.3738 16.3832L28.3733 10.3827C28.2535 10.263 28.0912 10.1958 27.9219 10.1958C27.7526 10.1958 27.5902 10.263 27.4704 10.3827L21.4644 16.3832C21.3447 16.503 21.2775 16.6654 21.2775 16.8347C21.2775 17.004 21.3447 17.1663 21.4644 17.2861L27.4704 23.2921C27.5902 23.4118 27.7526 23.479 27.9219 23.479C28.0912 23.479 28.2535 23.4118 28.3733 23.2921Z" fill="white"/>
</svg>
